<?xml version="1.0" standalone="no"?>
<!DOCTYPE svg PUBLIC "-//W3C//DTD SVG 20010904//EN"
 "http://www.w3.org/TR/2001/REC-SVG-20010904/DTD/svg10.dtd">
<svg version="1.0" xmlns="http://www.w3.org/2000/svg"
 width="128.000000pt" height="128.000000pt" viewBox="0 0 128.000000 128.000000"
 preserveAspectRatio="xMidYMid meet">
<metadata>
Created by potrace 1.14, written by Peter Selinger 2001-2017
</metadata>
<g transform="translate(0.000000,128.000000) scale(0.100000,-0.100000)"
fill="#000000" stroke="none">
<path d="M713 1019 c-96 -51 -103 -56 -103 -81 0 -11 -5 -18 -12 -15 -7 2 -13
10 -13 18 0 21 -29 17 -33 -5 -2 -10 -16 -30 -30 -43 l-27 -25 -18 23 c-12 15
-16 31 -12 51 6 24 4 28 -15 28 -19 0 -21 -4 -15 -29 5 -23 1 -35 -15 -51
l-21 -21 -25 26 c-13 14 -24 33 -24 41 0 7 -4 14 -10 14 -5 0 -13 0 -17 0 -5
0 -8 -3 -9 -7 0 -5 -4 -16 -9 -27 -4 -10 -4 -21 2 -25 16 -10 33 -48 33 -73 0
-32 -46 -127 -66 -135 -8 -3 -21 -18 -29 -33 -12 -23 -12 -30 0 -48 13 -18 11
-31 -16 -123 -36 -122 -58 -158 -92 -152 -17 3 -31 -3 -46 -18 -25 -27 -25
-29 -7 -54 12 -17 17 -18 39 -6 18 10 30 10 44 2 23 -12 86 -4 123 15 14 7 43
29 65 49 60 56 113 87 156 90 21 2 52 6 69 10 39 9 32 -15 -10 -33 -18 -8 -30
-21 -30 -33 0 -14 4 -16 18 -10 9 4 32 14 50 22 25 10 32 19 32 41 0 18 5 28
14 28 8 0 16 10 18 23 2 18 10 22 41 23 20 0 38 -3 38 -8 9 -55 -7 -94 -47
-117 -30 -18 -34 -24 -24 -36 14 -17 40 -20 40 -6 0 6 12 16 27 23 22 10 30
24 40 68 6 29 10 57 7 61 -2 4 2 11 9 16 16 13 197 56 204 49 4 -3 -2 -30 -12
-60 -19 -57 -16 -89 9 -80 18 7 43 80 51 153 3 30 8 64 11 75 2 12 6 41 7 66
l3 45 53 2 c29 1 55 3 57 6 2 2 -24 14 -58 28 -51 20 -63 29 -71 54 -4 17 -12
39 -17 50 -4 11 -13 36 -20 55 -18 51 -32 80 -41 80 -4 0 -37 14 -72 30 -36
17 -76 30 -90 30 -14 0 -61 -19 -104 -41z"/>
</g>
</svg>
